<mxfile host="app.diagrams.net" modified="2023-11-03T01:05:21.070Z" agent="Mozilla/5.0 (Windows NT 10.0; Win64; x64) AppleWebKit/537.36 (KHTML, like Gecko) Chrome/118.0.0.0 Safari/537.36" etag="nOoRvSSmAxOoLddKTaIi" version="22.0.8" type="github">
  <diagram name="第 1 页" id="UlycniJDo1whLGpSHLla">
    <mxGraphModel dx="880" dy="560" grid="1" gridSize="10" guides="1" tooltips="1" connect="1" arrows="1" fold="1" page="1" pageScale="1" pageWidth="827" pageHeight="1169" math="0" shadow="0">
      <root>
        <mxCell id="0" />
        <mxCell id="1" parent="0" />
        <mxCell id="WEfv2x2zYSz0iybY9xEB-1" value="&lt;div style=&quot;text-align: left;&quot;&gt;&lt;span style=&quot;font-size: 14px; background-color: initial;&quot;&gt;類&lt;/span&gt;&lt;/div&gt;&lt;font style=&quot;font-size: 14px;&quot;&gt;&lt;div style=&quot;text-align: left;&quot;&gt;&lt;span style=&quot;background-color: initial;&quot;&gt;第一行:類名稱&lt;/span&gt;&lt;/div&gt;&lt;div style=&quot;text-align: left;&quot;&gt;&lt;span style=&quot;background-color: initial;&quot;&gt;第二行:屬性&lt;/span&gt;&lt;/div&gt;&lt;div style=&quot;text-align: left;&quot;&gt;&lt;span style=&quot;background-color: initial;&quot;&gt;第三行:方法&lt;/span&gt;&lt;/div&gt;&lt;div style=&quot;text-align: left;&quot;&gt;&lt;span style=&quot;background-color: initial;&quot;&gt;&lt;br&gt;&lt;/span&gt;&lt;/div&gt;&lt;div style=&quot;text-align: left;&quot;&gt;&lt;span style=&quot;background-color: initial;&quot;&gt;類名為斜體字則為抽象類&lt;/span&gt;&lt;/div&gt;&lt;/font&gt;" style="shape=note;whiteSpace=wrap;html=1;backgroundOutline=1;darkOpacity=0.05;fillColor=#6d8764;fontColor=#ffffff;strokeColor=#FFFFFF;" vertex="1" parent="1">
          <mxGeometry x="40" y="38" width="110" height="150" as="geometry" />
        </mxCell>
        <mxCell id="WEfv2x2zYSz0iybY9xEB-2" value="&lt;font style=&quot;font-size: 16px;&quot; color=&quot;#ffffff&quot;&gt;動物&lt;/font&gt;" style="swimlane;fontStyle=1;align=center;verticalAlign=top;childLayout=stackLayout;horizontal=1;startSize=26;horizontalStack=0;resizeParent=1;resizeParentMax=0;resizeLast=0;collapsible=1;marginBottom=0;whiteSpace=wrap;html=1;fillColor=#CC6600;fontColor=#000000;strokeColor=#FFFFFF;" vertex="1" parent="1">
          <mxGeometry x="210" y="74" width="260" height="92" as="geometry" />
        </mxCell>
        <mxCell id="WEfv2x2zYSz0iybY9xEB-3" value="&lt;font color=&quot;#ffffff&quot;&gt;+ 有生命&lt;/font&gt;" style="text;strokeColor=#FFFFFF;fillColor=#CC6600;align=left;verticalAlign=top;spacingLeft=4;spacingRight=4;overflow=hidden;rotatable=0;points=[[0,0.5],[1,0.5]];portConstraint=eastwest;whiteSpace=wrap;html=1;fontColor=#000000;" vertex="1" parent="WEfv2x2zYSz0iybY9xEB-2">
          <mxGeometry y="26" width="260" height="26" as="geometry" />
        </mxCell>
        <mxCell id="WEfv2x2zYSz0iybY9xEB-4" value="&lt;font color=&quot;#ffffff&quot;&gt;+新陳代謝&lt;br&gt;+ 繁殖()&lt;/font&gt;" style="text;strokeColor=#FFFFFF;fillColor=#CC6600;align=left;verticalAlign=top;spacingLeft=4;spacingRight=4;overflow=hidden;rotatable=0;points=[[0,0.5],[1,0.5]];portConstraint=eastwest;whiteSpace=wrap;html=1;fontColor=#000000;" vertex="1" parent="WEfv2x2zYSz0iybY9xEB-2">
          <mxGeometry y="52" width="260" height="40" as="geometry" />
        </mxCell>
        <mxCell id="WEfv2x2zYSz0iybY9xEB-7" value="&lt;font style=&quot;font-size: 14px;&quot; color=&quot;#ffffff&quot;&gt;水&lt;/font&gt;" style="swimlane;fontStyle=1;align=center;verticalAlign=top;childLayout=stackLayout;horizontal=1;startSize=26;horizontalStack=0;resizeParent=1;resizeParentMax=0;resizeLast=0;collapsible=1;marginBottom=0;whiteSpace=wrap;html=1;fillColor=#76608a;fontColor=#ffffff;strokeColor=#FFFFFF;" vertex="1" parent="1">
          <mxGeometry x="630" y="140" width="60" height="78" as="geometry" />
        </mxCell>
        <mxCell id="WEfv2x2zYSz0iybY9xEB-8" value="&amp;nbsp;" style="text;strokeColor=#FFFFFF;fillColor=#76608a;align=left;verticalAlign=top;spacingLeft=4;spacingRight=4;overflow=hidden;rotatable=0;points=[[0,0.5],[1,0.5]];portConstraint=eastwest;whiteSpace=wrap;html=1;fontColor=#ffffff;" vertex="1" parent="WEfv2x2zYSz0iybY9xEB-7">
          <mxGeometry y="26" width="60" height="26" as="geometry" />
        </mxCell>
        <mxCell id="WEfv2x2zYSz0iybY9xEB-9" value="&amp;nbsp;" style="text;strokeColor=#FFFFFF;fillColor=#76608a;align=left;verticalAlign=top;spacingLeft=4;spacingRight=4;overflow=hidden;rotatable=0;points=[[0,0.5],[1,0.5]];portConstraint=eastwest;whiteSpace=wrap;html=1;fontColor=#ffffff;" vertex="1" parent="WEfv2x2zYSz0iybY9xEB-7">
          <mxGeometry y="52" width="60" height="26" as="geometry" />
        </mxCell>
        <mxCell id="WEfv2x2zYSz0iybY9xEB-10" value="" style="endArrow=block;dashed=1;endFill=0;endSize=12;html=1;rounded=0;exitX=1;exitY=0.5;exitDx=0;exitDy=0;entryX=0;entryY=0.5;entryDx=0;entryDy=0;" edge="1" parent="1" source="WEfv2x2zYSz0iybY9xEB-2" target="WEfv2x2zYSz0iybY9xEB-8">
          <mxGeometry width="160" relative="1" as="geometry">
            <mxPoint x="330" y="220" as="sourcePoint" />
            <mxPoint x="630" y="210" as="targetPoint" />
            <Array as="points">
              <mxPoint x="570" y="118" />
              <mxPoint x="570" y="180" />
            </Array>
          </mxGeometry>
        </mxCell>
        <mxCell id="WEfv2x2zYSz0iybY9xEB-11" value="" style="endArrow=block;dashed=1;endFill=0;endSize=12;html=1;rounded=0;exitX=1;exitY=0.5;exitDx=0;exitDy=0;entryX=0;entryY=0.5;entryDx=0;entryDy=0;" edge="1" parent="1" source="WEfv2x2zYSz0iybY9xEB-2">
          <mxGeometry width="160" relative="1" as="geometry">
            <mxPoint x="330" y="220" as="sourcePoint" />
            <mxPoint x="630" y="59" as="targetPoint" />
            <Array as="points">
              <mxPoint x="570" y="120" />
              <mxPoint x="570" y="60" />
            </Array>
          </mxGeometry>
        </mxCell>
        <mxCell id="WEfv2x2zYSz0iybY9xEB-12" value="依賴關係" style="shape=note;whiteSpace=wrap;html=1;backgroundOutline=1;darkOpacity=0.05;size=11;fillColor=#647687;fontColor=#ffffff;strokeColor=#FFFFFF;" vertex="1" parent="1">
          <mxGeometry x="510" y="80" width="50" height="28" as="geometry" />
        </mxCell>
        <mxCell id="WEfv2x2zYSz0iybY9xEB-13" value="" style="endArrow=none;dashed=1;html=1;rounded=0;exitX=0.991;exitY=0.5;exitDx=0;exitDy=0;exitPerimeter=0;entryX=0;entryY=0.5;entryDx=0;entryDy=0;" edge="1" parent="1" source="WEfv2x2zYSz0iybY9xEB-1" target="WEfv2x2zYSz0iybY9xEB-3">
          <mxGeometry width="50" height="50" relative="1" as="geometry">
            <mxPoint x="390" y="250" as="sourcePoint" />
            <mxPoint x="440" y="200" as="targetPoint" />
          </mxGeometry>
        </mxCell>
        <mxCell id="WEfv2x2zYSz0iybY9xEB-14" value="&lt;font style=&quot;font-size: 16px;&quot; color=&quot;#ffffff&quot;&gt;鳥&lt;/font&gt;" style="swimlane;fontStyle=1;align=center;verticalAlign=top;childLayout=stackLayout;horizontal=1;startSize=26;horizontalStack=0;resizeParent=1;resizeParentMax=0;resizeLast=0;collapsible=1;marginBottom=0;whiteSpace=wrap;html=1;fillColor=#994C00;fontColor=#000000;strokeColor=#FFFFFF;" vertex="1" parent="1">
          <mxGeometry x="280" y="210" width="120" height="102" as="geometry" />
        </mxCell>
        <mxCell id="WEfv2x2zYSz0iybY9xEB-15" value="&lt;font color=&quot;#ffffff&quot;&gt;+ 有羽毛&lt;br&gt;+有角質沒牙齒&lt;br&gt;&lt;/font&gt;" style="text;strokeColor=#FFFFFF;fillColor=#994C00;align=left;verticalAlign=top;spacingLeft=4;spacingRight=4;overflow=hidden;rotatable=0;points=[[0,0.5],[1,0.5]];portConstraint=eastwest;whiteSpace=wrap;html=1;fontColor=#000000;" vertex="1" parent="WEfv2x2zYSz0iybY9xEB-14">
          <mxGeometry y="26" width="120" height="44" as="geometry" />
        </mxCell>
        <mxCell id="WEfv2x2zYSz0iybY9xEB-16" value="&lt;font color=&quot;#ffffff&quot;&gt;+下蛋()&lt;/font&gt;" style="text;strokeColor=#FFFFFF;fillColor=#994C00;align=left;verticalAlign=top;spacingLeft=4;spacingRight=4;overflow=hidden;rotatable=0;points=[[0,0.5],[1,0.5]];portConstraint=eastwest;whiteSpace=wrap;html=1;fontColor=#000000;" vertex="1" parent="WEfv2x2zYSz0iybY9xEB-14">
          <mxGeometry y="70" width="120" height="32" as="geometry" />
        </mxCell>
        <mxCell id="WEfv2x2zYSz0iybY9xEB-17" value="" style="endArrow=block;endFill=0;endSize=12;html=1;rounded=0;exitX=0.5;exitY=0;exitDx=0;exitDy=0;entryX=0.5;entryY=1;entryDx=0;entryDy=0;" edge="1" parent="1" source="WEfv2x2zYSz0iybY9xEB-14" target="WEfv2x2zYSz0iybY9xEB-2">
          <mxGeometry width="160" relative="1" as="geometry">
            <mxPoint x="330" y="220" as="sourcePoint" />
            <mxPoint x="490" y="220" as="targetPoint" />
          </mxGeometry>
        </mxCell>
        <mxCell id="WEfv2x2zYSz0iybY9xEB-18" value="&lt;font style=&quot;font-size: 14px;&quot; color=&quot;#ffffff&quot;&gt;翅膀&lt;/font&gt;" style="swimlane;fontStyle=1;align=center;verticalAlign=top;childLayout=stackLayout;horizontal=1;startSize=26;horizontalStack=0;resizeParent=1;resizeParentMax=0;resizeLast=0;collapsible=1;marginBottom=0;whiteSpace=wrap;html=1;fillColor=#76608a;fontColor=#ffffff;strokeColor=#FFFFFF;" vertex="1" parent="1">
          <mxGeometry x="90" y="218" width="60" height="78" as="geometry" />
        </mxCell>
        <mxCell id="WEfv2x2zYSz0iybY9xEB-19" value="&amp;nbsp;" style="text;strokeColor=#FFFFFF;fillColor=#76608a;align=left;verticalAlign=top;spacingLeft=4;spacingRight=4;overflow=hidden;rotatable=0;points=[[0,0.5],[1,0.5]];portConstraint=eastwest;whiteSpace=wrap;html=1;fontColor=#ffffff;" vertex="1" parent="WEfv2x2zYSz0iybY9xEB-18">
          <mxGeometry y="26" width="60" height="26" as="geometry" />
        </mxCell>
        <mxCell id="WEfv2x2zYSz0iybY9xEB-20" value="&amp;nbsp;" style="text;strokeColor=#FFFFFF;fillColor=#76608a;align=left;verticalAlign=top;spacingLeft=4;spacingRight=4;overflow=hidden;rotatable=0;points=[[0,0.5],[1,0.5]];portConstraint=eastwest;whiteSpace=wrap;html=1;fontColor=#ffffff;" vertex="1" parent="WEfv2x2zYSz0iybY9xEB-18">
          <mxGeometry y="52" width="60" height="26" as="geometry" />
        </mxCell>
        <mxCell id="WEfv2x2zYSz0iybY9xEB-21" value="" style="endArrow=diamondThin;endFill=1;endSize=24;html=1;rounded=0;exitX=1;exitY=0.5;exitDx=0;exitDy=0;entryX=0;entryY=0.5;entryDx=0;entryDy=0;strokeColor=#000000;" edge="1" parent="1" source="WEfv2x2zYSz0iybY9xEB-19" target="WEfv2x2zYSz0iybY9xEB-15">
          <mxGeometry width="160" relative="1" as="geometry">
            <mxPoint x="150" y="263" as="sourcePoint" />
            <mxPoint x="490" y="222" as="targetPoint" />
          </mxGeometry>
        </mxCell>
        <mxCell id="WEfv2x2zYSz0iybY9xEB-22" value="組合關係" style="shape=note;whiteSpace=wrap;html=1;backgroundOutline=1;darkOpacity=0.05;size=11;fillColor=#647687;fontColor=#ffffff;strokeColor=#FFFFFF;" vertex="1" parent="1">
          <mxGeometry x="190" y="218" width="50" height="28" as="geometry" />
        </mxCell>
        <mxCell id="WEfv2x2zYSz0iybY9xEB-23" value="&lt;span style=&quot;font-size: 14px;&quot;&gt;大雁&lt;/span&gt;" style="swimlane;fontStyle=1;align=center;verticalAlign=top;childLayout=stackLayout;horizontal=1;startSize=26;horizontalStack=0;resizeParent=1;resizeParentMax=0;resizeLast=0;collapsible=1;marginBottom=0;whiteSpace=wrap;html=1;fillColor=#FF8000;fontColor=#ffffff;strokeColor=#FFFFFF;" vertex="1" parent="1">
          <mxGeometry x="440" y="370" width="60" height="90" as="geometry" />
        </mxCell>
        <mxCell id="WEfv2x2zYSz0iybY9xEB-24" value="&amp;nbsp;" style="text;strokeColor=#FFFFFF;fillColor=#FF8000;align=left;verticalAlign=top;spacingLeft=4;spacingRight=4;overflow=hidden;rotatable=0;points=[[0,0.5],[1,0.5]];portConstraint=eastwest;whiteSpace=wrap;html=1;fontColor=#ffffff;" vertex="1" parent="WEfv2x2zYSz0iybY9xEB-23">
          <mxGeometry y="26" width="60" height="26" as="geometry" />
        </mxCell>
        <mxCell id="WEfv2x2zYSz0iybY9xEB-25" value="+下蛋()&lt;br&gt;+飛()" style="text;strokeColor=#FFFFFF;fillColor=#FF8000;align=left;verticalAlign=top;spacingLeft=4;spacingRight=4;overflow=hidden;rotatable=0;points=[[0,0.5],[1,0.5]];portConstraint=eastwest;whiteSpace=wrap;html=1;fontColor=#ffffff;" vertex="1" parent="WEfv2x2zYSz0iybY9xEB-23">
          <mxGeometry y="52" width="60" height="38" as="geometry" />
        </mxCell>
        <mxCell id="WEfv2x2zYSz0iybY9xEB-26" value="&lt;font style=&quot;font-size: 14px;&quot; color=&quot;#ffffff&quot;&gt;鴨&lt;/font&gt;" style="swimlane;fontStyle=1;align=center;verticalAlign=top;childLayout=stackLayout;horizontal=1;startSize=26;horizontalStack=0;resizeParent=1;resizeParentMax=0;resizeLast=0;collapsible=1;marginBottom=0;whiteSpace=wrap;html=1;fillColor=#FF8000;fontColor=#ffffff;strokeColor=#FFFFFF;" vertex="1" parent="1">
          <mxGeometry x="310" y="370" width="60" height="78" as="geometry" />
        </mxCell>
        <mxCell id="WEfv2x2zYSz0iybY9xEB-27" value="&amp;nbsp;" style="text;strokeColor=#FFFFFF;fillColor=#FF8000;align=left;verticalAlign=top;spacingLeft=4;spacingRight=4;overflow=hidden;rotatable=0;points=[[0,0.5],[1,0.5]];portConstraint=eastwest;whiteSpace=wrap;html=1;fontColor=#ffffff;" vertex="1" parent="WEfv2x2zYSz0iybY9xEB-26">
          <mxGeometry y="26" width="60" height="26" as="geometry" />
        </mxCell>
        <mxCell id="WEfv2x2zYSz0iybY9xEB-28" value="+下蛋()" style="text;strokeColor=#FFFFFF;fillColor=#FF8000;align=left;verticalAlign=top;spacingLeft=4;spacingRight=4;overflow=hidden;rotatable=0;points=[[0,0.5],[1,0.5]];portConstraint=eastwest;whiteSpace=wrap;html=1;fontColor=#ffffff;" vertex="1" parent="WEfv2x2zYSz0iybY9xEB-26">
          <mxGeometry y="52" width="60" height="26" as="geometry" />
        </mxCell>
        <mxCell id="WEfv2x2zYSz0iybY9xEB-29" value="&lt;font style=&quot;font-size: 14px;&quot; color=&quot;#ffffff&quot;&gt;企鵝&lt;/font&gt;" style="swimlane;fontStyle=1;align=center;verticalAlign=top;childLayout=stackLayout;horizontal=1;startSize=26;horizontalStack=0;resizeParent=1;resizeParentMax=0;resizeLast=0;collapsible=1;marginBottom=0;whiteSpace=wrap;html=1;fillColor=#FF8000;fontColor=#ffffff;strokeColor=#FFFFFF;" vertex="1" parent="1">
          <mxGeometry x="180" y="370" width="60" height="78" as="geometry" />
        </mxCell>
        <mxCell id="WEfv2x2zYSz0iybY9xEB-30" value="&amp;nbsp;" style="text;strokeColor=#FFFFFF;fillColor=#FF8000;align=left;verticalAlign=top;spacingLeft=4;spacingRight=4;overflow=hidden;rotatable=0;points=[[0,0.5],[1,0.5]];portConstraint=eastwest;whiteSpace=wrap;html=1;fontColor=#ffffff;" vertex="1" parent="WEfv2x2zYSz0iybY9xEB-29">
          <mxGeometry y="26" width="60" height="26" as="geometry" />
        </mxCell>
        <mxCell id="WEfv2x2zYSz0iybY9xEB-31" value="+下蛋()" style="text;strokeColor=#FFFFFF;fillColor=#FF8000;align=left;verticalAlign=top;spacingLeft=4;spacingRight=4;overflow=hidden;rotatable=0;points=[[0,0.5],[1,0.5]];portConstraint=eastwest;whiteSpace=wrap;html=1;fontColor=#ffffff;" vertex="1" parent="WEfv2x2zYSz0iybY9xEB-29">
          <mxGeometry y="52" width="60" height="26" as="geometry" />
        </mxCell>
        <mxCell id="WEfv2x2zYSz0iybY9xEB-32" value="" style="endArrow=block;endFill=0;endSize=12;html=1;rounded=0;exitX=0.5;exitY=0;exitDx=0;exitDy=0;entryX=0.5;entryY=0.969;entryDx=0;entryDy=0;entryPerimeter=0;" edge="1" parent="1" source="WEfv2x2zYSz0iybY9xEB-26" target="WEfv2x2zYSz0iybY9xEB-16">
          <mxGeometry width="160" relative="1" as="geometry">
            <mxPoint x="349.5" y="356" as="sourcePoint" />
            <mxPoint x="349.5" y="312" as="targetPoint" />
          </mxGeometry>
        </mxCell>
        <mxCell id="WEfv2x2zYSz0iybY9xEB-33" value="" style="endArrow=none;html=1;rounded=0;exitX=0.5;exitY=0;exitDx=0;exitDy=0;entryX=0.617;entryY=-0.051;entryDx=0;entryDy=0;entryPerimeter=0;" edge="1" parent="1" source="WEfv2x2zYSz0iybY9xEB-29" target="WEfv2x2zYSz0iybY9xEB-23">
          <mxGeometry width="50" height="50" relative="1" as="geometry">
            <mxPoint x="390" y="320" as="sourcePoint" />
            <mxPoint x="480" y="340" as="targetPoint" />
            <Array as="points">
              <mxPoint x="210" y="340" />
              <mxPoint x="477" y="340" />
            </Array>
          </mxGeometry>
        </mxCell>
        <mxCell id="WEfv2x2zYSz0iybY9xEB-34" value="&lt;font style=&quot;font-size: 14px;&quot; color=&quot;#ffffff&quot;&gt;氣候&lt;/font&gt;" style="swimlane;fontStyle=1;align=center;verticalAlign=top;childLayout=stackLayout;horizontal=1;startSize=26;horizontalStack=0;resizeParent=1;resizeParentMax=0;resizeLast=0;collapsible=1;marginBottom=0;whiteSpace=wrap;html=1;fillColor=#007FFF;fontColor=#ffffff;strokeColor=#FFFFFF;" vertex="1" parent="1">
          <mxGeometry x="40" y="400" width="60" height="78" as="geometry" />
        </mxCell>
        <mxCell id="WEfv2x2zYSz0iybY9xEB-35" value="&amp;nbsp;" style="text;strokeColor=#FFFFFF;fillColor=#007FFF;align=left;verticalAlign=top;spacingLeft=4;spacingRight=4;overflow=hidden;rotatable=0;points=[[0,0.5],[1,0.5]];portConstraint=eastwest;whiteSpace=wrap;html=1;fontColor=#ffffff;" vertex="1" parent="WEfv2x2zYSz0iybY9xEB-34">
          <mxGeometry y="26" width="60" height="26" as="geometry" />
        </mxCell>
        <mxCell id="WEfv2x2zYSz0iybY9xEB-36" value="&amp;nbsp;" style="text;strokeColor=#FFFFFF;fillColor=#007FFF;align=left;verticalAlign=top;spacingLeft=4;spacingRight=4;overflow=hidden;rotatable=0;points=[[0,0.5],[1,0.5]];portConstraint=eastwest;whiteSpace=wrap;html=1;fontColor=#ffffff;" vertex="1" parent="WEfv2x2zYSz0iybY9xEB-34">
          <mxGeometry y="52" width="60" height="26" as="geometry" />
        </mxCell>
        <mxCell id="WEfv2x2zYSz0iybY9xEB-37" value="關聯關係" style="shape=note;whiteSpace=wrap;html=1;backgroundOutline=1;darkOpacity=0.05;size=11;fillColor=#647687;fontColor=#ffffff;strokeColor=#FFFFFF;" vertex="1" parent="1">
          <mxGeometry x="110" y="372" width="50" height="28" as="geometry" />
        </mxCell>
        <mxCell id="WEfv2x2zYSz0iybY9xEB-38" value="&lt;font style=&quot;font-size: 14px;&quot; color=&quot;#ffffff&quot;&gt;唐老鴨&lt;/font&gt;" style="swimlane;fontStyle=1;align=center;verticalAlign=top;childLayout=stackLayout;horizontal=1;startSize=26;horizontalStack=0;resizeParent=1;resizeParentMax=0;resizeLast=0;collapsible=1;marginBottom=0;whiteSpace=wrap;html=1;fillColor=#663300;fontColor=#ffffff;strokeColor=#FFFFFF;" vertex="1" parent="1">
          <mxGeometry x="310" y="520" width="60" height="78" as="geometry" />
        </mxCell>
        <mxCell id="WEfv2x2zYSz0iybY9xEB-39" value="&amp;nbsp;" style="text;strokeColor=#FFFFFF;fillColor=#663300;align=left;verticalAlign=top;spacingLeft=4;spacingRight=4;overflow=hidden;rotatable=0;points=[[0,0.5],[1,0.5]];portConstraint=eastwest;whiteSpace=wrap;html=1;fontColor=#ffffff;" vertex="1" parent="WEfv2x2zYSz0iybY9xEB-38">
          <mxGeometry y="26" width="60" height="26" as="geometry" />
        </mxCell>
        <mxCell id="WEfv2x2zYSz0iybY9xEB-40" value="+講話()" style="text;strokeColor=#FFFFFF;fillColor=#663300;align=left;verticalAlign=top;spacingLeft=4;spacingRight=4;overflow=hidden;rotatable=0;points=[[0,0.5],[1,0.5]];portConstraint=eastwest;whiteSpace=wrap;html=1;fontColor=#ffffff;" vertex="1" parent="WEfv2x2zYSz0iybY9xEB-38">
          <mxGeometry y="52" width="60" height="26" as="geometry" />
        </mxCell>
        <mxCell id="WEfv2x2zYSz0iybY9xEB-41" value="" style="endArrow=block;endFill=0;endSize=12;html=1;rounded=0;exitX=0.5;exitY=0;exitDx=0;exitDy=0;" edge="1" parent="1" source="WEfv2x2zYSz0iybY9xEB-38" target="WEfv2x2zYSz0iybY9xEB-28">
          <mxGeometry width="160" relative="1" as="geometry">
            <mxPoint x="339.5" y="509" as="sourcePoint" />
            <mxPoint x="339.5" y="450" as="targetPoint" />
          </mxGeometry>
        </mxCell>
        <mxCell id="WEfv2x2zYSz0iybY9xEB-42" value="繼承關係" style="shape=note;whiteSpace=wrap;html=1;backgroundOutline=1;darkOpacity=0.05;size=11;fillColor=#647687;fontColor=#ffffff;strokeColor=#FFFFFF;" vertex="1" parent="1">
          <mxGeometry x="280" y="472" width="50" height="28" as="geometry" />
        </mxCell>
        <mxCell id="WEfv2x2zYSz0iybY9xEB-43" value="" style="endArrow=classic;html=1;rounded=0;entryX=1;entryY=0.5;entryDx=0;entryDy=0;exitX=0;exitY=0.5;exitDx=0;exitDy=0;" edge="1" parent="1" source="WEfv2x2zYSz0iybY9xEB-30" target="WEfv2x2zYSz0iybY9xEB-35">
          <mxGeometry width="50" height="50" relative="1" as="geometry">
            <mxPoint x="390" y="420" as="sourcePoint" />
            <mxPoint x="440" y="370" as="targetPoint" />
            <Array as="points">
              <mxPoint x="140" y="410" />
              <mxPoint x="140" y="440" />
            </Array>
          </mxGeometry>
        </mxCell>
        <mxCell id="WEfv2x2zYSz0iybY9xEB-44" value="&lt;font style=&quot;font-size: 14px;&quot; color=&quot;#ffffff&quot;&gt;群&lt;/font&gt;" style="swimlane;fontStyle=1;align=center;verticalAlign=top;childLayout=stackLayout;horizontal=1;startSize=26;horizontalStack=0;resizeParent=1;resizeParentMax=0;resizeLast=0;collapsible=1;marginBottom=0;whiteSpace=wrap;html=1;fillColor=#76608a;fontColor=#ffffff;strokeColor=#FFFFFF;" vertex="1" parent="1">
          <mxGeometry x="590" y="372" width="80" height="90" as="geometry" />
        </mxCell>
        <mxCell id="WEfv2x2zYSz0iybY9xEB-45" value="&amp;nbsp;" style="text;strokeColor=#FFFFFF;fillColor=#76608a;align=left;verticalAlign=top;spacingLeft=4;spacingRight=4;overflow=hidden;rotatable=0;points=[[0,0.5],[1,0.5]];portConstraint=eastwest;whiteSpace=wrap;html=1;fontColor=#ffffff;" vertex="1" parent="WEfv2x2zYSz0iybY9xEB-44">
          <mxGeometry y="26" width="80" height="26" as="geometry" />
        </mxCell>
        <mxCell id="WEfv2x2zYSz0iybY9xEB-46" value="+V型飛行()&lt;br&gt;+一班飛行()" style="text;strokeColor=#FFFFFF;fillColor=#76608a;align=left;verticalAlign=top;spacingLeft=4;spacingRight=4;overflow=hidden;rotatable=0;points=[[0,0.5],[1,0.5]];portConstraint=eastwest;whiteSpace=wrap;html=1;fontColor=#ffffff;" vertex="1" parent="WEfv2x2zYSz0iybY9xEB-44">
          <mxGeometry y="52" width="80" height="38" as="geometry" />
        </mxCell>
        <mxCell id="WEfv2x2zYSz0iybY9xEB-47" value="" style="endArrow=diamondThin;endFill=1;endSize=24;html=1;rounded=0;exitX=0;exitY=0.5;exitDx=0;exitDy=0;entryX=0.983;entryY=0.808;entryDx=0;entryDy=0;strokeColor=#000000;entryPerimeter=0;" edge="1" parent="1" source="WEfv2x2zYSz0iybY9xEB-44" target="WEfv2x2zYSz0iybY9xEB-24">
          <mxGeometry width="160" relative="1" as="geometry">
            <mxPoint x="160" y="267" as="sourcePoint" />
            <mxPoint x="290" y="268" as="targetPoint" />
          </mxGeometry>
        </mxCell>
        <mxCell id="WEfv2x2zYSz0iybY9xEB-48" value="聚合關係" style="shape=note;whiteSpace=wrap;html=1;backgroundOutline=1;darkOpacity=0.05;size=11;fillColor=#647687;fontColor=#ffffff;strokeColor=#FFFFFF;" vertex="1" parent="1">
          <mxGeometry x="520" y="370" width="50" height="28" as="geometry" />
        </mxCell>
        <mxCell id="WEfv2x2zYSz0iybY9xEB-49" value="" style="endArrow=block;dashed=1;endFill=0;endSize=12;html=1;rounded=0;exitX=0.5;exitY=1;exitDx=0;exitDy=0;entryX=0.5;entryY=0;entryDx=0;entryDy=0;" edge="1" parent="1" source="WEfv2x2zYSz0iybY9xEB-23">
          <mxGeometry width="160" relative="1" as="geometry">
            <mxPoint x="480" y="480" as="sourcePoint" />
            <mxPoint x="660" y="570" as="targetPoint" />
            <Array as="points">
              <mxPoint x="470" y="540" />
              <mxPoint x="580" y="540" />
              <mxPoint x="660" y="540" />
            </Array>
          </mxGeometry>
        </mxCell>
        <mxCell id="WEfv2x2zYSz0iybY9xEB-50" value="實現接口" style="shape=note;whiteSpace=wrap;html=1;backgroundOutline=1;darkOpacity=0.05;size=11;fillColor=#647687;fontColor=#ffffff;strokeColor=#FFFFFF;" vertex="1" parent="1">
          <mxGeometry x="480" y="500" width="50" height="28" as="geometry" />
        </mxCell>
        <mxCell id="WEfv2x2zYSz0iybY9xEB-51" value="" style="ellipse;whiteSpace=wrap;html=1;aspect=fixed;fillColor=#CC6600;strokeColor=#FFFFFF;" vertex="1" parent="1">
          <mxGeometry x="320" y="680" width="40" height="40" as="geometry" />
        </mxCell>
        <mxCell id="WEfv2x2zYSz0iybY9xEB-52" value="" style="endArrow=none;html=1;rounded=0;exitX=0.5;exitY=0;exitDx=0;exitDy=0;entryX=0.5;entryY=1;entryDx=0;entryDy=0;" edge="1" parent="1" source="WEfv2x2zYSz0iybY9xEB-51" target="WEfv2x2zYSz0iybY9xEB-38">
          <mxGeometry width="50" height="50" relative="1" as="geometry">
            <mxPoint x="390" y="520" as="sourcePoint" />
            <mxPoint x="340" y="590" as="targetPoint" />
          </mxGeometry>
        </mxCell>
        <mxCell id="WEfv2x2zYSz0iybY9xEB-53" value="講人話" style="text;whiteSpace=wrap;html=1;" vertex="1" parent="1">
          <mxGeometry x="320" y="720" width="40" height="20" as="geometry" />
        </mxCell>
        <mxCell id="WEfv2x2zYSz0iybY9xEB-54" value="" style="endArrow=none;dashed=1;html=1;rounded=0;exitX=1.009;exitY=0.5;exitDx=0;exitDy=0;exitPerimeter=0;entryX=0;entryY=0.5;entryDx=0;entryDy=0;" edge="1" parent="1" target="WEfv2x2zYSz0iybY9xEB-51">
          <mxGeometry width="50" height="50" relative="1" as="geometry">
            <mxPoint x="232" y="700" as="sourcePoint" />
            <mxPoint x="440" y="570" as="targetPoint" />
          </mxGeometry>
        </mxCell>
        <mxCell id="WEfv2x2zYSz0iybY9xEB-56" value="&lt;font style=&quot;font-size: 14px;&quot; color=&quot;#ffffff&quot;&gt;&amp;lt;&amp;lt;interface&amp;gt;&amp;gt;&lt;br&gt;飛翔&lt;/font&gt;" style="swimlane;fontStyle=1;align=center;verticalAlign=top;childLayout=stackLayout;horizontal=1;startSize=50;horizontalStack=0;resizeParent=1;resizeParentMax=0;resizeLast=0;collapsible=1;marginBottom=0;whiteSpace=wrap;html=1;fillColor=#663300;fontColor=#ffffff;strokeColor=#FFFFFF;" vertex="1" parent="1">
          <mxGeometry x="585" y="570" width="150" height="76" as="geometry" />
        </mxCell>
        <mxCell id="WEfv2x2zYSz0iybY9xEB-57" value="+飛()" style="text;strokeColor=#FFFFFF;fillColor=#663300;align=left;verticalAlign=top;spacingLeft=4;spacingRight=4;overflow=hidden;rotatable=0;points=[[0,0.5],[1,0.5]];portConstraint=eastwest;whiteSpace=wrap;html=1;fontColor=#ffffff;" vertex="1" parent="WEfv2x2zYSz0iybY9xEB-56">
          <mxGeometry y="50" width="150" height="26" as="geometry" />
        </mxCell>
        <mxCell id="WEfv2x2zYSz0iybY9xEB-58" value="" style="endArrow=none;dashed=1;html=1;rounded=0;entryX=0.5;entryY=0;entryDx=0;entryDy=0;entryPerimeter=0;" edge="1" parent="1">
          <mxGeometry width="50" height="50" relative="1" as="geometry">
            <mxPoint x="660" y="650" as="sourcePoint" />
            <mxPoint x="660" y="680" as="targetPoint" />
          </mxGeometry>
        </mxCell>
        <mxCell id="WEfv2x2zYSz0iybY9xEB-59" value="&lt;div style=&quot;text-align: left;&quot;&gt;&lt;span style=&quot;font-size: 14px;&quot;&gt;接口&lt;/span&gt;&lt;/div&gt;&lt;div style=&quot;text-align: left;&quot;&gt;&lt;span style=&quot;font-size: 14px;&quot;&gt;矩形表示法，&amp;lt;&amp;lt;interface&amp;gt;&amp;gt;&lt;/span&gt;&lt;/div&gt;&lt;div style=&quot;text-align: left;&quot;&gt;&lt;span style=&quot;font-size: 14px;&quot;&gt;第一行:接口名稱&lt;/span&gt;&lt;/div&gt;&lt;div style=&quot;text-align: left;&quot;&gt;&lt;span style=&quot;font-size: 14px;&quot;&gt;第二行:接口方法&lt;/span&gt;&lt;/div&gt;" style="shape=note;whiteSpace=wrap;html=1;backgroundOutline=1;darkOpacity=0.05;fillColor=#6d8764;fontColor=#ffffff;strokeColor=#FFFFFF;" vertex="1" parent="1">
          <mxGeometry x="540" y="680" width="240" height="120" as="geometry" />
        </mxCell>
        <mxCell id="WEfv2x2zYSz0iybY9xEB-60" value="&lt;div style=&quot;text-align: left;&quot;&gt;&lt;span style=&quot;font-size: 14px;&quot;&gt;接口&lt;/span&gt;&lt;/div&gt;&lt;div style=&quot;text-align: left;&quot;&gt;&lt;span style=&quot;font-size: 14px;&quot;&gt;棒棒糖表示法&lt;/span&gt;&lt;/div&gt;&lt;div style=&quot;text-align: left;&quot;&gt;&lt;span style=&quot;font-size: 14px;&quot;&gt;圓圈旁為接口名稱&lt;/span&gt;&lt;/div&gt;&lt;div style=&quot;text-align: left;&quot;&gt;&lt;span style=&quot;font-size: 14px;&quot;&gt;接口方法在實現類出現&lt;/span&gt;&lt;/div&gt;" style="shape=note;whiteSpace=wrap;html=1;backgroundOutline=1;darkOpacity=0.05;fillColor=#6d8764;fontColor=#ffffff;strokeColor=#FFFFFF;" vertex="1" parent="1">
          <mxGeometry y="640" width="230" height="120" as="geometry" />
        </mxCell>
        <mxCell id="WEfv2x2zYSz0iybY9xEB-61" value="&lt;font style=&quot;font-size: 14px;&quot; color=&quot;#ffffff&quot;&gt;氧氣&lt;/font&gt;" style="swimlane;fontStyle=1;align=center;verticalAlign=top;childLayout=stackLayout;horizontal=1;startSize=26;horizontalStack=0;resizeParent=1;resizeParentMax=0;resizeLast=0;collapsible=1;marginBottom=0;whiteSpace=wrap;html=1;fillColor=#76608a;fontColor=#ffffff;strokeColor=#FFFFFF;" vertex="1" parent="1">
          <mxGeometry x="630" y="20" width="60" height="78" as="geometry" />
        </mxCell>
        <mxCell id="WEfv2x2zYSz0iybY9xEB-62" value="&amp;nbsp;" style="text;strokeColor=#FFFFFF;fillColor=#76608a;align=left;verticalAlign=top;spacingLeft=4;spacingRight=4;overflow=hidden;rotatable=0;points=[[0,0.5],[1,0.5]];portConstraint=eastwest;whiteSpace=wrap;html=1;fontColor=#ffffff;" vertex="1" parent="WEfv2x2zYSz0iybY9xEB-61">
          <mxGeometry y="26" width="60" height="26" as="geometry" />
        </mxCell>
        <mxCell id="WEfv2x2zYSz0iybY9xEB-63" value="&amp;nbsp;" style="text;strokeColor=#FFFFFF;fillColor=#76608a;align=left;verticalAlign=top;spacingLeft=4;spacingRight=4;overflow=hidden;rotatable=0;points=[[0,0.5],[1,0.5]];portConstraint=eastwest;whiteSpace=wrap;html=1;fontColor=#ffffff;" vertex="1" parent="WEfv2x2zYSz0iybY9xEB-61">
          <mxGeometry y="52" width="60" height="26" as="geometry" />
        </mxCell>
      </root>
    </mxGraphModel>
  </diagram>
</mxfile>
